# xmcd CD database file
#
# Track frame offsets:
#	150
#	32976
#	71848
#	93386
#	117168
#	156398
#	205948
#
# Disc length: 3552 seconds
#
# Revision: 1
# Processed by: cddbd v1.5.2PL0 Copyright (c) Steve Scherf et al.
# Submitted via: CDex 1.51
#
DISCID=620dde07
DTITLE=John Mayall - Live at The Marquee
DYEAR=1900
DGENRE=Blues
TTITLE0=Can't sleep this night
TTITLE1=So hard to share
TTITLE2=Don't waste my time
TTITLE3=I'm gonna fight for you JB
TTITLE4=The laws must change
TTITLE5=California (1)
TTITLE6=California (2)
EXTD=
EXTT0=
EXTT1=
EXTT2=
EXTT3=
EXTT4=
EXTT5=
EXTT6=
PLAYORDER=
